<?xml version="1.0" standalone="no"?><!DOCTYPE svg PUBLIC "-//W3C//DTD SVG 1.1//EN" "http://www.w3.org/Graphics/SVG/1.1/DTD/svg11.dtd"><svg t="1515480875683" class="icon" style="" viewBox="0 0 1024 1024" version="1.1" xmlns="http://www.w3.org/2000/svg" p-id="2533" xmlns:xlink="http://www.w3.org/1999/xlink" width="48" height="48"><defs><style type="text/css"></style></defs><path d="M988 848.2h-133.6c-0.5-6.5-2.7-12.9-6.8-18.6L527 387.6c5.8-2.9 11.7-5.8 17.5-8.7 21.4-10.7 42.7-21.4 63.7-32.2 21-10.7 41.5-21.4 61.4-31.8 19.8-10.5 39-20.6 57.1-30.4 18-9.9 35.1-19.2 50.9-27.8 15.7-8.6 30-16.9 42.7-24 6.7-3.7 12.8-7.3 18.5-10.6 1.5 4.8 3.1 9.7 4.9 14.5 2.9 7.6 6.5 15 11 22 8.8 13.9 21.9 25.7 33.3 37.1 5.9 5.6 11.1 11.3 16.1 16.7 5 5.4 9.9 10.3 14.6 14.8 4.7 4.5 9.3 8.5 13.3 12 4.1 3.5 7.8 6.5 11 8.9 3.1 2.4 5.7 4.3 7.5 5.5 1.8 1.2 2.8 1.9 2.8 1.9 1.6 1.1 3.3 1.9 5.2 2.5v417.9c0 6 4.8 10.8 10.8 10.8 6 0 10.8-4.9 10.8-10.8V352.1c3.1-3.5 5-8.1 5.2-13.2 0 0 0-1.2 0.1-3.4 0-2.2 0-5.4-0.2-9.3-0.1-4-0.5-8.7-1-14.1-0.6-5.4-1.2-11.4-2.2-17.9-1-6.4-2.2-13.4-3.7-20.5-1.5-7.2-3.1-14.8-4.4-22.8-2.8-16-4.9-33.4-11.2-48.7-3.1-7.7-7.1-14.9-11.7-21.6-4.6-6.7-9.5-13.2-14.5-19.2-5.1-6-10.3-11.7-15.6-16.9-5.3-5.2-10.8-9.9-16-14.1-5.3-4.2-10.4-7.9-15.2-11.1-4.7-3.2-9.2-5.8-13-7.9-3.8-2.1-7-3.6-9.2-4.6-1.1-0.5-2-0.9-2.6-1.1-0.6-0.2-0.9-0.4-0.9-0.4-1.1-0.4-2.4-0.9-3.5-1.1-12.7-2.9-25.4 5-28.4 17.8 0 0-0.1 0.3-0.2 1-0.2 0.7-0.4 1.6-0.6 2.8-0.4 2.4-1.1 5.9-1.6 10.2-0.1 1.3-0.3 2.7-0.4 4.2-3.1 1.2-6.5 2.6-10.3 4.1-9.7 4-21.5 8.7-34.9 14.4-13.4 5.7-28.6 12-45.1 19.2-16.4 7.2-34.2 15-53 23.3-18.8 8.4-38.5 17.4-58.9 26.7-20.3 9.4-41.4 19.2-62.6 29.3-21.3 10-42.8 20.4-64.3 30.8-21.5 10.5-43 21-64 31.5s-41.7 21-61.6 31.4c-19.9 10.3-39.1 20.4-57.2 30.2-18.1 9.7-35.2 19.1-50.8 27.9-15.7 8.7-30 16.9-42.6 24.3-6.3 3.7-12.2 7.1-17.7 10.3-5.4 3.3-10.4 6.3-14.9 9-9 5.4-16 9.8-20.8 12.8-4.8 3-7.3 4.6-7.3 4.6-14.1 8.9-20.6 26.8-14.7 43.1 6.8 18.9 27.6 28.6 46.4 21.7 0 0 2.8-1 8.1-3s13-4.8 22.8-8.7c4.9-1.9 10.3-4 16.2-6.3 5.9-2.4 12.2-5 18.9-7.7 13.5-5.5 28.7-11.8 45.2-18.9 16.5-7.1 34.3-14.8 53.1-23.3 18.8-8.4 38.5-17.4 58.8-26.9 6.1-2.8 12.3-5.8 18.6-8.7v416.7H36c-19.9 0-36 16.2-36 36.1 0 19.9 16.1 36.1 36 36.1h952c19.9 0 36-16.2 36-36.1 0-19.8-16.1-35.9-36-35.9z m-479.4 0V485l263.6 363.2H508.6z m460.9-39.8c-6 0-10.8 4.8-10.8 10.8 0 6 4.8 10.8 10.8 10.8s10.8-4.9 10.8-10.8-4.9-10.8-10.8-10.8zM220.4 580.2c0-6-4.8-10.8-10.8-10.8s-10.8 4.8-10.8 10.8c0 6 4.8 10.8 10.8 10.8s10.8-4.8 10.8-10.8zM106.7 848.1h205.9l77-101.2h10.8v-36.1H289.6c6.2 12.2 9.8 26.1 9.8 40.8 0 49.5-40 89.6-89.2 89.6-49.3 0-89.2-40.1-89.2-89.6 0-14.7 3.5-28.5 9.8-40.8H19v36.1h10.8L106.7 848.1z m103.5-38.9c34.5 0 62.1-28.1 62.1-62.7 0-15.6-6.2-28.1-14.7-40.8l-47.9-81.8-50.7 86.6c-1.8 2.6-3.5 5.4-4.9 8.3l-0.7 1.1h0.1c-3.8 8.1-5.9 17-5.9 26.5 0.1 34.7 28.1 62.8 62.6 62.8z m0-88.8c14.3 0 25.9 11.7 25.9 26 0 14.4-11.6 26.1-25.9 26.1s-25.9-11.7-25.9-26.1c-0.1-14.3 11.6-26 25.9-26z" p-id="2534" fill="#ffffff"></path></svg>